<svg width="20" height="18" viewBox="0 0 20 18" fill="none" xmlns="http://www.w3.org/2000/svg">
<path d="M17.9062 1.2983C15.6484 -0.653852 12.1602 -0.360628 10 1.90081C7.83984 -0.360628 4.35156 -0.657869 2.09375 1.2983C-0.843745 3.84091 -0.414058 7.98621 1.67969 10.1834L8.53125 17.3613C8.92187 17.771 9.44531 18 10 18C10.5586 18 11.0781 17.7751 11.4687 17.3654L18.3203 10.1874C20.4101 7.99022 20.8476 3.84492 17.9062 1.2983V1.2983ZM16.9844 8.82973L10.1328 16.0077C10.0391 16.1041 9.96094 16.1041 9.86719 16.0077L3.01563 8.82973C1.58985 7.33549 1.30078 4.50769 3.30078 2.77646C4.82031 1.46298 7.16406 1.6598 8.63281 3.19822L10 4.63221L11.3672 3.19822C12.8437 1.65177 15.1875 1.46298 16.6992 2.77245C18.6953 4.50367 18.3984 7.34754 16.9844 8.82973V8.82973Z" fill="#949494"/>
</svg>
