<svg width="161" height="158" viewBox="0 0 161 158" fill="none" xmlns="http://www.w3.org/2000/svg">
<path d="M80.1818 0C35.9395 0 0.0327148 35.392 0.0327148 79C0.0327148 122.608 35.9395 158 80.1818 158C124.424 158 160.331 122.608 160.331 79C160.331 35.392 124.424 0 80.1818 0ZM80.1818 23.7C93.4865 23.7 104.226 34.286 104.226 47.4C104.226 60.514 93.4865 71.1 80.1818 71.1C66.877 71.1 56.1371 60.514 56.1371 47.4C56.1371 34.286 66.877 23.7 80.1818 23.7ZM80.1818 135.88C60.1445 135.88 42.4316 125.768 32.0923 110.442C32.3328 94.721 64.152 86.11 80.1818 86.11C96.1314 86.11 128.031 94.721 128.271 110.442C117.932 125.768 100.219 135.88 80.1818 135.88Z" fill="#FC3C5B"/>
</svg>
