<svg width="201" height="60" viewBox="0 0 201 60" fill="none" xmlns="http://www.w3.org/2000/svg">
<path d="M75.474 44.0947C77.2062 44.0947 78.0723 43.0534 78.0723 40.9708V39.6862C77.1186 40.2701 75.9216 40.5621 74.4813 40.5621C72.6518 40.5621 71.2407 40.0268 70.248 38.9563C69.2749 37.8859 68.7883 36.105 68.7883 33.6136C68.7883 28.6505 71.0655 26.1689 75.6199 26.1689C76.7877 26.1689 77.8777 26.4219 78.8898 26.928C79.0844 26.5776 79.3764 26.4024 79.7656 26.4024H82.1596V40.7664C82.1596 42.9074 81.6244 44.4937 80.5539 45.5252C79.5029 46.5568 77.868 47.0726 75.6491 47.0726C74.4813 47.0726 73.2746 46.9363 72.0289 46.6639C70.7833 46.3914 69.8393 46.0508 69.197 45.642C69.1775 45.4669 69.1678 45.2917 69.1678 45.1165C69.1678 44.046 69.4208 43.0145 69.9269 42.0218H72.496C72.7101 42.4306 72.8659 42.9755 72.9632 43.6568C73.7028 43.9487 74.5397 44.0947 75.474 44.0947ZM72.8172 33.4385C72.8172 34.8982 73.0118 35.92 73.4011 36.504C73.8098 37.0879 74.491 37.3798 75.4448 37.3798C76.4179 37.3798 77.2938 37.1073 78.0723 36.5623V29.6431C77.2938 29.3122 76.4471 29.1468 75.5323 29.1468C73.7222 29.1468 72.8172 30.5773 72.8172 33.4385ZM84.9669 28.5629C84.9669 28.2709 84.9767 27.9595 84.9961 27.6286C86.8062 26.6555 88.7526 26.1689 90.8351 26.1689C92.9177 26.1689 94.4067 26.5679 95.302 27.3659C96.2168 28.1444 96.6742 29.4485 96.6742 31.278V37.4966C97.3554 37.6328 97.8906 37.7983 98.2799 37.9929V40.5329C97.2873 41 95.8664 41.2336 94.0174 41.2336C93.8228 40.7275 93.6573 40.1144 93.5211 39.3943C92.6842 40.6205 91.166 41.2336 88.9667 41.2336C87.6626 41.2336 86.5435 40.854 85.6092 40.095C84.6944 39.3359 84.237 38.3043 84.237 37.0003C84.237 35.6962 84.6652 34.6744 85.5216 33.9348C86.3975 33.1757 87.6918 32.7962 89.4046 32.7962H92.5869V31.3948C92.5869 29.8767 91.7791 29.1176 90.1637 29.1176C89.5603 29.1176 89.064 29.176 88.6747 29.2928C88.6358 30.1102 88.519 30.7428 88.3244 31.1904H85.4632C85.1324 30.5092 84.9669 29.6334 84.9669 28.5629ZM90.222 38.2557C91.2147 38.2557 92.003 37.9637 92.5869 37.3798V34.9858H90.5432C89.1418 34.9858 88.4411 35.521 88.4411 36.5915C88.4411 37.0781 88.5871 37.4771 88.8791 37.7885C89.1905 38.1 89.6381 38.2557 90.222 38.2557ZM99.6147 26.4024C100.685 26.1689 101.649 26.0521 102.505 26.0521C103.361 26.0521 104.072 26.0716 104.636 26.1105V27.5702C105.103 27.181 105.687 26.8501 106.388 26.5776C107.089 26.3051 107.721 26.1689 108.286 26.1689C110.504 26.1689 111.984 26.7236 112.723 27.833C113.21 27.3659 113.852 26.9766 114.65 26.6652C115.448 26.3343 116.188 26.1689 116.869 26.1689C119.01 26.1689 120.45 26.6555 121.19 27.6286C121.929 28.5823 122.299 30.3827 122.299 33.0297V37.7593C123.058 38.0513 123.594 38.3822 123.905 38.752L123.613 41H116.898L116.606 38.752C116.879 38.3822 117.414 38.0513 118.212 37.7593V31.9787C118.212 30.9082 118.066 30.1978 117.774 29.8475C117.482 29.4971 116.898 29.322 116.022 29.322C115.166 29.322 114.348 29.6431 113.57 30.2854C113.667 30.9471 113.716 31.8619 113.716 33.0297V37.7593C114.475 38.0513 115.01 38.3822 115.322 38.752L115.03 41H108.315L108.023 38.752C108.295 38.3822 108.831 38.0513 109.629 37.7593V31.9787C109.629 30.9082 109.483 30.1978 109.191 29.8475C108.899 29.4971 108.325 29.322 107.468 29.322C106.612 29.322 105.794 29.6334 105.016 30.2562V37.7593C105.775 38.0513 106.31 38.3822 106.621 38.752L106.33 41H99.6147L99.3227 38.752C99.5952 38.3822 100.13 38.0513 100.928 37.7593V29.6431C100.247 29.4095 99.712 29.0787 99.3227 28.6505L99.6147 26.4024ZM125.481 28.5629C125.481 28.2709 125.491 27.9595 125.51 27.6286C127.32 26.6555 129.266 26.1689 131.349 26.1689C133.432 26.1689 134.921 26.5679 135.816 27.3659C136.731 28.1444 137.188 29.4485 137.188 31.278V37.4966C137.869 37.6328 138.405 37.7983 138.794 37.9929V40.5329C137.801 41 136.38 41.2336 134.531 41.2336C134.337 40.7275 134.171 40.1144 134.035 39.3943C133.198 40.6205 131.68 41.2336 129.481 41.2336C128.177 41.2336 127.057 40.854 126.123 40.095C125.208 39.3359 124.751 38.3043 124.751 37.0003C124.751 35.6962 125.179 34.6744 126.036 33.9348C126.911 33.1757 128.206 32.7962 129.919 32.7962H133.101V31.3948C133.101 29.8767 132.293 29.1176 130.678 29.1176C130.074 29.1176 129.578 29.176 129.189 29.2928C129.15 30.1102 129.033 30.7428 128.838 31.1904H125.977C125.646 30.5092 125.481 29.6334 125.481 28.5629ZM130.736 38.2557C131.729 38.2557 132.517 37.9637 133.101 37.3798V34.9858H131.057C129.656 34.9858 128.955 35.521 128.955 36.5915C128.955 37.0781 129.101 37.4771 129.393 37.7885C129.704 38.1 130.152 38.2557 130.736 38.2557ZM145.676 28.7964C144.391 28.7964 143.749 29.176 143.749 29.935C143.749 30.6552 144.42 31.1904 145.763 31.5408L148.07 32.1539C150.444 32.7767 151.631 34.1489 151.631 36.2704C151.631 37.7301 151.116 38.9271 150.084 39.8614C149.072 40.7762 147.447 41.2336 145.209 41.2336C142.99 41.2336 141.257 40.9221 140.012 40.2993C139.992 40.0852 139.983 39.8711 139.983 39.657C139.983 38.5865 140.197 37.6231 140.625 36.7667H143.048C143.301 37.2338 143.467 37.7204 143.544 38.2265C143.934 38.3432 144.488 38.4016 145.209 38.4016C146.921 38.4016 147.778 37.915 147.778 36.9419C147.778 36.6305 147.661 36.3774 147.427 36.1828C147.194 35.9687 146.736 35.7643 146.055 35.5697L143.749 34.8982C142.562 34.5673 141.637 34.0808 140.975 33.4385C140.314 32.7767 139.983 31.8133 139.983 30.5481C139.983 29.2636 140.498 28.2125 141.53 27.3951C142.562 26.5776 144.031 26.1689 145.938 26.1689C147.865 26.1689 149.491 26.4511 150.814 27.0155C150.833 27.2102 150.843 27.4048 150.843 27.5994C150.843 28.6115 150.629 29.5458 150.201 30.4022H147.807C147.554 29.9545 147.388 29.4874 147.311 29.0008C146.766 28.8646 146.221 28.7964 145.676 28.7964ZM152.95 20.2715C154.04 20.0184 155.052 19.8919 155.987 19.8919C156.921 19.8919 157.709 19.9211 158.351 19.9795V27.2783C158.818 26.9669 159.441 26.7041 160.22 26.49C160.998 26.2759 161.689 26.1689 162.293 26.1689C164.22 26.1689 165.553 26.636 166.292 27.5702C167.032 28.5045 167.402 29.9253 167.402 31.8327V37.7593C168.161 38.0513 168.696 38.3822 169.008 38.752L168.716 41H162.001L161.709 38.752C161.981 38.3822 162.517 38.0513 163.315 37.7593V31.9787C163.315 30.9277 163.139 30.227 162.789 29.8767C162.458 29.5069 161.845 29.322 160.95 29.322C160.054 29.322 159.188 29.6334 158.351 30.2562V37.7593C159.11 38.0513 159.646 38.3822 159.957 38.752L159.665 41H152.95L152.658 38.752C152.931 38.3822 153.466 38.0513 154.264 37.7593V23.5121C153.583 23.2786 153.048 22.9477 152.658 22.5195L152.95 20.2715ZM176.774 41.2336C174.477 41.2336 172.774 40.6205 171.665 39.3943C170.555 38.1681 170 36.319 170 33.8472C170 31.3559 170.614 29.4582 171.84 28.1541C173.085 26.8306 174.866 26.1689 177.182 26.1689C179.499 26.1689 181.211 26.7528 182.321 27.9206C183.45 29.0884 184.014 30.918 184.014 33.4093C184.014 35.8811 183.382 37.808 182.116 39.1899C180.871 40.5523 179.09 41.2336 176.774 41.2336ZM174.205 33.5844C174.205 36.6986 175.139 38.2557 177.007 38.2557C177.961 38.2557 178.662 37.9053 179.109 37.2046C179.576 36.4845 179.81 35.3167 179.81 33.7012C179.81 30.6649 178.856 29.1468 176.949 29.1468C176.015 29.1468 175.324 29.4874 174.876 30.1686C174.428 30.8304 174.205 31.969 174.205 33.5844ZM185.482 26.4024C186.552 26.1689 187.516 26.0521 188.372 26.0521C189.229 26.0521 189.939 26.0716 190.503 26.1105V27.541C191.807 26.6263 193.199 26.1689 194.678 26.1689C196.625 26.1689 198.036 26.7236 198.912 27.833C199.787 28.9424 200.225 30.7914 200.225 33.3801C200.225 34.762 200.021 35.9784 199.612 37.0295C199.204 38.0805 198.649 38.898 197.948 39.4819C196.605 40.6497 195.009 41.2336 193.16 41.2336C192.362 41.2336 191.603 41.1557 190.883 41V43.5108C192.031 43.8222 192.771 44.1823 193.102 44.591L192.81 46.839H185.482L185.19 44.591C185.443 44.2407 185.978 43.9098 186.796 43.5984V29.6431C186.114 29.4095 185.579 29.0787 185.19 28.6505L185.482 26.4024ZM192.868 38.2557C193.841 38.2557 194.61 37.8275 195.175 36.9711C195.739 36.0952 196.021 34.8982 196.021 33.3801C196.021 31.8425 195.866 30.7914 195.554 30.227C195.243 29.6626 194.678 29.3803 193.861 29.3803C192.615 29.3803 191.623 29.6723 190.883 30.2562V38.0221C191.486 38.1778 192.148 38.2557 192.868 38.2557Z" fill="url(#paint0_linear)"/>
<path d="M75.474 44.0947C77.2062 44.0947 78.0723 43.0534 78.0723 40.9708V39.6862C77.1186 40.2701 75.9216 40.5621 74.4813 40.5621C72.6518 40.5621 71.2407 40.0268 70.248 38.9563C69.2749 37.8859 68.7883 36.105 68.7883 33.6136C68.7883 28.6505 71.0655 26.1689 75.6199 26.1689C76.7877 26.1689 77.8777 26.4219 78.8898 26.928C79.0844 26.5776 79.3764 26.4024 79.7656 26.4024H82.1596V40.7664C82.1596 42.9074 81.6244 44.4937 80.5539 45.5252C79.5029 46.5568 77.868 47.0726 75.6491 47.0726C74.4813 47.0726 73.2746 46.9363 72.0289 46.6639C70.7833 46.3914 69.8393 46.0508 69.197 45.642C69.1775 45.4669 69.1678 45.2917 69.1678 45.1165C69.1678 44.046 69.4208 43.0145 69.9269 42.0218H72.496C72.7101 42.4306 72.8659 42.9755 72.9632 43.6568C73.7028 43.9487 74.5397 44.0947 75.474 44.0947ZM72.8172 33.4385C72.8172 34.8982 73.0118 35.92 73.4011 36.504C73.8098 37.0879 74.491 37.3798 75.4448 37.3798C76.4179 37.3798 77.2938 37.1073 78.0723 36.5623V29.6431C77.2938 29.3122 76.4471 29.1468 75.5323 29.1468C73.7222 29.1468 72.8172 30.5773 72.8172 33.4385ZM84.9669 28.5629C84.9669 28.2709 84.9767 27.9595 84.9961 27.6286C86.8062 26.6555 88.7526 26.1689 90.8351 26.1689C92.9177 26.1689 94.4067 26.5679 95.302 27.3659C96.2168 28.1444 96.6742 29.4485 96.6742 31.278V37.4966C97.3554 37.6328 97.8906 37.7983 98.2799 37.9929V40.5329C97.2873 41 95.8664 41.2336 94.0174 41.2336C93.8228 40.7275 93.6573 40.1144 93.5211 39.3943C92.6842 40.6205 91.166 41.2336 88.9667 41.2336C87.6626 41.2336 86.5435 40.854 85.6092 40.095C84.6944 39.3359 84.237 38.3043 84.237 37.0003C84.237 35.6962 84.6652 34.6744 85.5216 33.9348C86.3975 33.1757 87.6918 32.7962 89.4046 32.7962H92.5869V31.3948C92.5869 29.8767 91.7791 29.1176 90.1637 29.1176C89.5603 29.1176 89.064 29.176 88.6747 29.2928C88.6358 30.1102 88.519 30.7428 88.3244 31.1904H85.4632C85.1324 30.5092 84.9669 29.6334 84.9669 28.5629ZM90.222 38.2557C91.2147 38.2557 92.003 37.9637 92.5869 37.3798V34.9858H90.5432C89.1418 34.9858 88.4411 35.521 88.4411 36.5915C88.4411 37.0781 88.5871 37.4771 88.8791 37.7885C89.1905 38.1 89.6381 38.2557 90.222 38.2557ZM99.6147 26.4024C100.685 26.1689 101.649 26.0521 102.505 26.0521C103.361 26.0521 104.072 26.0716 104.636 26.1105V27.5702C105.103 27.181 105.687 26.8501 106.388 26.5776C107.089 26.3051 107.721 26.1689 108.286 26.1689C110.504 26.1689 111.984 26.7236 112.723 27.833C113.21 27.3659 113.852 26.9766 114.65 26.6652C115.448 26.3343 116.188 26.1689 116.869 26.1689C119.01 26.1689 120.45 26.6555 121.19 27.6286C121.929 28.5823 122.299 30.3827 122.299 33.0297V37.7593C123.058 38.0513 123.594 38.3822 123.905 38.752L123.613 41H116.898L116.606 38.752C116.879 38.3822 117.414 38.0513 118.212 37.7593V31.9787C118.212 30.9082 118.066 30.1978 117.774 29.8475C117.482 29.4971 116.898 29.322 116.022 29.322C115.166 29.322 114.348 29.6431 113.57 30.2854C113.667 30.9471 113.716 31.8619 113.716 33.0297V37.7593C114.475 38.0513 115.01 38.3822 115.322 38.752L115.03 41H108.315L108.023 38.752C108.295 38.3822 108.831 38.0513 109.629 37.7593V31.9787C109.629 30.9082 109.483 30.1978 109.191 29.8475C108.899 29.4971 108.325 29.322 107.468 29.322C106.612 29.322 105.794 29.6334 105.016 30.2562V37.7593C105.775 38.0513 106.31 38.3822 106.621 38.752L106.33 41H99.6147L99.3227 38.752C99.5952 38.3822 100.13 38.0513 100.928 37.7593V29.6431C100.247 29.4095 99.712 29.0787 99.3227 28.6505L99.6147 26.4024ZM125.481 28.5629C125.481 28.2709 125.491 27.9595 125.51 27.6286C127.32 26.6555 129.266 26.1689 131.349 26.1689C133.432 26.1689 134.921 26.5679 135.816 27.3659C136.731 28.1444 137.188 29.4485 137.188 31.278V37.4966C137.869 37.6328 138.405 37.7983 138.794 37.9929V40.5329C137.801 41 136.38 41.2336 134.531 41.2336C134.337 40.7275 134.171 40.1144 134.035 39.3943C133.198 40.6205 131.68 41.2336 129.481 41.2336C128.177 41.2336 127.057 40.854 126.123 40.095C125.208 39.3359 124.751 38.3043 124.751 37.0003C124.751 35.6962 125.179 34.6744 126.036 33.9348C126.911 33.1757 128.206 32.7962 129.919 32.7962H133.101V31.3948C133.101 29.8767 132.293 29.1176 130.678 29.1176C130.074 29.1176 129.578 29.176 129.189 29.2928C129.15 30.1102 129.033 30.7428 128.838 31.1904H125.977C125.646 30.5092 125.481 29.6334 125.481 28.5629ZM130.736 38.2557C131.729 38.2557 132.517 37.9637 133.101 37.3798V34.9858H131.057C129.656 34.9858 128.955 35.521 128.955 36.5915C128.955 37.0781 129.101 37.4771 129.393 37.7885C129.704 38.1 130.152 38.2557 130.736 38.2557ZM145.676 28.7964C144.391 28.7964 143.749 29.176 143.749 29.935C143.749 30.6552 144.42 31.1904 145.763 31.5408L148.07 32.1539C150.444 32.7767 151.631 34.1489 151.631 36.2704C151.631 37.7301 151.116 38.9271 150.084 39.8614C149.072 40.7762 147.447 41.2336 145.209 41.2336C142.99 41.2336 141.257 40.9221 140.012 40.2993C139.992 40.0852 139.983 39.8711 139.983 39.657C139.983 38.5865 140.197 37.6231 140.625 36.7667H143.048C143.301 37.2338 143.467 37.7204 143.544 38.2265C143.934 38.3432 144.488 38.4016 145.209 38.4016C146.921 38.4016 147.778 37.915 147.778 36.9419C147.778 36.6305 147.661 36.3774 147.427 36.1828C147.194 35.9687 146.736 35.7643 146.055 35.5697L143.749 34.8982C142.562 34.5673 141.637 34.0808 140.975 33.4385C140.314 32.7767 139.983 31.8133 139.983 30.5481C139.983 29.2636 140.498 28.2125 141.53 27.3951C142.562 26.5776 144.031 26.1689 145.938 26.1689C147.865 26.1689 149.491 26.4511 150.814 27.0155C150.833 27.2102 150.843 27.4048 150.843 27.5994C150.843 28.6115 150.629 29.5458 150.201 30.4022H147.807C147.554 29.9545 147.388 29.4874 147.311 29.0008C146.766 28.8646 146.221 28.7964 145.676 28.7964ZM152.95 20.2715C154.04 20.0184 155.052 19.8919 155.987 19.8919C156.921 19.8919 157.709 19.9211 158.351 19.9795V27.2783C158.818 26.9669 159.441 26.7041 160.22 26.49C160.998 26.2759 161.689 26.1689 162.293 26.1689C164.22 26.1689 165.553 26.636 166.292 27.5702C167.032 28.5045 167.402 29.9253 167.402 31.8327V37.7593C168.161 38.0513 168.696 38.3822 169.008 38.752L168.716 41H162.001L161.709 38.752C161.981 38.3822 162.517 38.0513 163.315 37.7593V31.9787C163.315 30.9277 163.139 30.227 162.789 29.8767C162.458 29.5069 161.845 29.322 160.95 29.322C160.054 29.322 159.188 29.6334 158.351 30.2562V37.7593C159.11 38.0513 159.646 38.3822 159.957 38.752L159.665 41H152.95L152.658 38.752C152.931 38.3822 153.466 38.0513 154.264 37.7593V23.5121C153.583 23.2786 153.048 22.9477 152.658 22.5195L152.95 20.2715ZM176.774 41.2336C174.477 41.2336 172.774 40.6205 171.665 39.3943C170.555 38.1681 170 36.319 170 33.8472C170 31.3559 170.614 29.4582 171.84 28.1541C173.085 26.8306 174.866 26.1689 177.182 26.1689C179.499 26.1689 181.211 26.7528 182.321 27.9206C183.45 29.0884 184.014 30.918 184.014 33.4093C184.014 35.8811 183.382 37.808 182.116 39.1899C180.871 40.5523 179.09 41.2336 176.774 41.2336ZM174.205 33.5844C174.205 36.6986 175.139 38.2557 177.007 38.2557C177.961 38.2557 178.662 37.9053 179.109 37.2046C179.576 36.4845 179.81 35.3167 179.81 33.7012C179.81 30.6649 178.856 29.1468 176.949 29.1468C176.015 29.1468 175.324 29.4874 174.876 30.1686C174.428 30.8304 174.205 31.969 174.205 33.5844ZM185.482 26.4024C186.552 26.1689 187.516 26.0521 188.372 26.0521C189.229 26.0521 189.939 26.0716 190.503 26.1105V27.541C191.807 26.6263 193.199 26.1689 194.678 26.1689C196.625 26.1689 198.036 26.7236 198.912 27.833C199.787 28.9424 200.225 30.7914 200.225 33.3801C200.225 34.762 200.021 35.9784 199.612 37.0295C199.204 38.0805 198.649 38.898 197.948 39.4819C196.605 40.6497 195.009 41.2336 193.16 41.2336C192.362 41.2336 191.603 41.1557 190.883 41V43.5108C192.031 43.8222 192.771 44.1823 193.102 44.591L192.81 46.839H185.482L185.19 44.591C185.443 44.2407 185.978 43.9098 186.796 43.5984V29.6431C186.114 29.4095 185.579 29.0787 185.19 28.6505L185.482 26.4024ZM192.868 38.2557C193.841 38.2557 194.61 37.8275 195.175 36.9711C195.739 36.0952 196.021 34.8982 196.021 33.3801C196.021 31.8425 195.866 30.7914 195.554 30.227C195.243 29.6626 194.678 29.3803 193.861 29.3803C192.615 29.3803 191.623 29.6723 190.883 30.2562V38.0221C191.486 38.1778 192.148 38.2557 192.868 38.2557Z" fill="black" fill-opacity="0.19"/>
<mask id="mask0" style="mask-type:alpha" maskUnits="userSpaceOnUse" x="6" y="30" width="52" height="30">
<path d="M6.14541 34.9089C5.55999 32.4 7.46444 30 10.0408 30H53.9592C56.5356 30 58.44 32.4 57.8546 34.9089L52 60H12L6.14541 34.9089Z" fill="url(#paint1_linear)"/>
</mask>
<g mask="url(#mask0)">
<path fill-rule="evenodd" clip-rule="evenodd" d="M25.2521 30C24.9277 30.8546 24.75 31.7816 24.75 32.75V33.25C24.75 37.5302 28.2198 41 32.5 41C36.7803 41 40.25 37.5302 40.25 33.25V32.75C40.25 31.7816 40.0724 30.8546 39.748 30H53.9593C56.5356 30 58.4401 32.4 57.8546 34.9089L52 60H12L6.14546 34.9089C5.56004 32.4 7.46448 30 10.0408 30H25.2521Z" fill="url(#paint2_linear)"/>
</g>
<path d="M38.4806 26.4722C37.9653 25.5229 37.2194 24.8042 36.243 24.316C35.2938 23.8007 34.1682 23.543 32.8663 23.543C30.6152 23.543 28.8116 24.2889 27.4555 25.7806C26.0994 27.2452 25.4214 29.2115 25.4214 31.6796C25.4214 34.3104 26.1265 36.3717 27.5369 37.8634C28.9743 39.328 30.9407 40.0603 33.4359 40.0603C35.1446 40.0603 36.582 39.6263 37.7483 38.7584C38.9417 37.8905 39.8096 36.6429 40.352 35.0156H31.5238V29.8896H46.6579V36.3581C46.1425 38.094 45.2611 39.7077 44.0135 41.1994C42.793 42.6911 41.2335 43.898 39.3349 44.8202C37.4364 45.7423 35.2938 46.2034 32.907 46.2034C30.0863 46.2034 27.564 45.5932 25.34 44.3727C23.1431 43.1251 21.4209 41.4028 20.1733 39.206C18.9528 37.0091 18.3425 34.5003 18.3425 31.6796C18.3425 28.8589 18.9528 26.3501 20.1733 24.1533C21.4209 21.9293 23.1431 20.207 25.34 18.9865C27.5369 17.7389 30.0457 17.1151 32.8663 17.1151C36.2837 17.1151 39.1586 17.9423 41.4911 19.5968C43.8507 21.2512 45.4102 23.543 46.1697 26.4722H38.4806Z" fill="url(#paint3_linear)"/>
<path d="M38.4806 26.4722C37.9653 25.5229 37.2194 24.8042 36.243 24.316C35.2938 23.8007 34.1682 23.543 32.8663 23.543C30.6152 23.543 28.8116 24.2889 27.4555 25.7806C26.0994 27.2452 25.4214 29.2115 25.4214 31.6796C25.4214 34.3104 26.1265 36.3717 27.5369 37.8634C28.9743 39.328 30.9407 40.0603 33.4359 40.0603C35.1446 40.0603 36.582 39.6263 37.7483 38.7584C38.9417 37.8905 39.8096 36.6429 40.352 35.0156H31.5238V29.8896H46.6579V36.3581C46.1425 38.094 45.2611 39.7077 44.0135 41.1994C42.793 42.6911 41.2335 43.898 39.3349 44.8202C37.4364 45.7423 35.2938 46.2034 32.907 46.2034C30.0863 46.2034 27.564 45.5932 25.34 44.3727C23.1431 43.1251 21.4209 41.4028 20.1733 39.206C18.9528 37.0091 18.3425 34.5003 18.3425 31.6796C18.3425 28.8589 18.9528 26.3501 20.1733 24.1533C21.4209 21.9293 23.1431 20.207 25.34 18.9865C27.5369 17.7389 30.0457 17.1151 32.8663 17.1151C36.2837 17.1151 39.1586 17.9423 41.4911 19.5968C43.8507 21.2512 45.4102 23.543 46.1697 26.4722H38.4806Z" fill="black" fill-opacity="0.03"/>
<defs>
<linearGradient id="paint0_linear" x1="68" y1="23" x2="76.8892" y2="65.9578" gradientUnits="userSpaceOnUse">
<stop stop-color="#00D962"/>
<stop offset="1" stop-color="#00A5CB"/>
</linearGradient>
<linearGradient id="paint1_linear" x1="34" y1="60" x2="34" y2="30" gradientUnits="userSpaceOnUse">
<stop stop-color="white" stop-opacity="0"/>
<stop offset="0.614583" stop-color="white" stop-opacity="0.640625"/>
<stop offset="1" stop-color="white"/>
</linearGradient>
<linearGradient id="paint2_linear" x1="59" y1="30" x2="5" y2="30" gradientUnits="userSpaceOnUse">
<stop stop-color="#7BE68C"/>
<stop offset="1" stop-color="#9BD5F5"/>
</linearGradient>
<linearGradient id="paint3_linear" x1="24" y1="22.5" x2="41.5" y2="44.5" gradientUnits="userSpaceOnUse">
<stop stop-color="#03E669"/>
<stop offset="1" stop-color="#00C5F2"/>
</linearGradient>
</defs>
</svg>
